<svg xmlns="http://www.w3.org/2000/svg" xmlns:xlink="http://www.w3.org/1999/xlink" viewBox="0 0 172.76 172.76"><defs><style>.cls-1{fill:#ffc83d;}.cls-2{fill:none;}.cls-2,.cls-3,.cls-4{stroke:#000;stroke-linecap:round;stroke-linejoin:round;stroke-width:5px;}.cls-3{fill:url(#linear-gradient);}.cls-4{fill:url(#linear-gradient-2);}</style><linearGradient id="linear-gradient" x1="36.35" y1="60.47" x2="69.14" y2="60.47" gradientUnits="userSpaceOnUse"><stop offset="0" stop-color="#fff"/><stop offset="1"/></linearGradient><linearGradient id="linear-gradient-2" x1="71.27" y1="60.47" x2="104.06" y2="60.47" gradientTransform="matrix(-1, 0, 0, 1, 207.68, 0)" xlink:href="#linear-gradient"/></defs><g id="Layer_2" data-name="Layer 2"><g id="Layer_1_copy_2" data-name="Layer 1 copy 2"><circle class="cls-1" cx="86.38" cy="86.38" r="86.38"/><path class="cls-2" d="M51.45,133.47c0-10,15.64-18.12,34.93-18.12s34.92,8.11,34.92,18.12"/><line class="cls-3" x1="36.35" y1="48.15" x2="69.14" y2="72.79"/><path d="M74.46,73.6c.18,1.11.27,5.37.27,6.57,0,7.4-3.44,13.4-7.68,13.4s-7.67-6-7.67-13.4c0-6.29,2.8-11.8,6.15-13.24"/><line class="cls-4" x1="136.41" y1="48.15" x2="103.62" y2="72.79"/><path d="M98.29,73.6C98.12,74.71,98,79,98,80.17c0,7.4,3.43,13.4,7.67,13.4s7.67-6,7.67-13.4c0-6.29-2.79-11.8-6.14-13.24"/></g></g></svg>