<svg xmlns="http://www.w3.org/2000/svg" viewBox="0 0 172.76 172.76"><defs><style>.cls-1{fill:#ffc83d;}.cls-2,.cls-3{fill:none;stroke:#000;stroke-width:5px;}.cls-2{stroke-miterlimit:10;}.cls-3{stroke-linecap:round;stroke-linejoin:round;}.cls-4{fill:#8cbd18;}</style></defs><g id="Layer_2" data-name="Layer 2"><g id="Layer_1_copy_3" data-name="Layer 1 copy 3"><circle class="cls-1" cx="86.38" cy="86.38" r="86.38"/><path class="cls-2" d="M51.45,133.47c0-10,15.64-18.12,34.93-18.12s34.92,8.11,34.92,18.12"/><polyline class="cls-3" points="37.76 93.03 76.18 77.79 37.76 62.56"/><polyline class="cls-3" points="135 93.03 96.58 77.79 135 62.56"/><path class="cls-4" d="M42.58,143.65c1.42-6.51,2.44-9.12,9.17-15.47,3.66-3.44,8.41-5.45,13.11-7.24,6.16-2.36,12.48-4.49,19-5.27A43.91,43.91,0,0,1,115,123.56c8.8,6.52,14.12,11.81,14.55,22.73,5.12,1.26,8.8-2.74,14.06-3,2-.1,3.22-.94,5.31-2,2.64-1.32,5.65-3.39,8.33-2.18,5,2.28,4.35,9.1,3.73,11.94-.92,4.18,0,9.38-3.82,11.46-6.34,2.61-10.51,5-17,7.09-3,.95-5.25.79-8.35,1.06-3.69.33-8.08.12-11.77.39-7.62.57-13.24,1.68-20.63,1.68-12.41,0-26.15-.09-38.71-.83a95.78,95.78,0,0,1-12.45-2l-27.8-5.37a12.61,12.61,0,0,1-6.67-3.95,8.44,8.44,0,0,1-2.29-4.78c0-4.83-.15-6.56,2.28-10.42,1.61-2.56,2.7-2.63,3.31-3.22,2.75-2.66,3.39-.76,6.11,1,6.41,4,10.2,2.72,18.9,2.64"/></g></g></svg>