<svg xmlns="http://www.w3.org/2000/svg" viewBox="0 0 121.28 171"><defs><style>.cls-1{fill:#1b75bc;stroke:#2b3990;}.cls-1,.cls-11,.cls-2,.cls-3,.cls-8,.cls-9{stroke-miterlimit:10;}.cls-1,.cls-9{stroke-width:3px;}.cls-10,.cls-11,.cls-2{fill:#939598;}.cls-11,.cls-2{stroke:#58595b;}.cls-2{stroke-width:5px;}.cls-3{fill:#f1c27d;stroke:#8b5e3c;}.cls-11,.cls-3{stroke-width:4px;}.cls-4{fill:none;}.cls-5{fill:#3c2415;}.cls-6{fill:#603913;}.cls-7{fill:#fff;}.cls-8{stroke:#231f20;}.cls-9{fill:#231f20;stroke:#000;}</style></defs><g id="Layer_2" data-name="Layer 2"><g id="Layer_1-2" data-name="Layer 1"><path class="cls-1" d="M37.41,3.3c-1.41,2.13-2.59,5.1-.09,7.13a1.64,1.64,0,0,0,.22.14A6.09,6.09,0,0,0,45.11,9c4.06-4.59,8-8,15.46-7.32S73.71,8.08,72.68,17a17.75,17.75,0,0,1-6.62,12,1.13,1.13,0,0,1-1.15.21c-.78-.29-1.69-.83-6.89-.18a1.21,1.21,0,0,1-1.11-.49,7.67,7.67,0,0,0-7.3-3.07c-1,.12-4.66,1-5.14,1.14l-.12,0c-.75.1-8.29.95-12.37-5.14-4.3-6.41-2.63-12-1.41-14.42a12.72,12.72,0,0,1,5.32-5.43A1.17,1.17,0,0,1,37.41,3.3Z"/><circle class="cls-2" cx="60.64" cy="85.67" r="56.4"/><path class="cls-3" d="M6.56,60.76H114.79a0,0,0,0,1,0,0v54.12A54.12,54.12,0,0,1,60.68,169h0A54.12,54.12,0,0,1,6.56,114.88V60.76A0,0,0,0,1,6.56,60.76Z"/><path class="cls-4" d="M43.53,70.18a1.93,1.93,0,0,1-.4-2.44"/><path class="cls-5" d="M78.22,148.57A26.87,26.87,0,0,1,61,155.36v.06c-2.46.27-11.46-.74-17.89-6.83-4.09-3.87-6.6-10-5.06-11.53,1.33-1.33,4.87,1.54,12.69,3.3a48.47,48.47,0,0,0,9.62,1.14v-.08a48.29,48.29,0,0,0,10.25-1.12c7.82-1.72,11.38-4.57,12.7-3.25C84.85,138.59,82.32,144.71,78.22,148.57Z"/><path class="cls-6" d="M68,131c-1.06,2.05-4.1,3.68-7.3,3.72s-6.24-1.67-7.3-3.72a2.83,2.83,0,0,1-.35-2.32,2.35,2.35,0,0,1,1.19-1.14c2-.79,3.43,2.66,6.38,2.62h.15c3,0,4.37-3.41,6.38-2.62a2.28,2.28,0,0,1,1.19,1.14A2.87,2.87,0,0,1,68,131Z"/><ellipse cx="82.33" cy="116.06" rx="6.52" ry="8.71"/><ellipse cx="38.24" cy="116.11" rx="6.52" ry="8.71"/><ellipse class="cls-7" cx="34.7" cy="113.02" rx="1.58" ry="1.96"/><ellipse class="cls-7" cx="78.65" cy="113.02" rx="1.58" ry="1.96"/><path class="cls-8" d="M35.75,98c3.39-1.47,8.41-2,10.53.34a2.87,2.87,0,0,1,.9,2.22,2.8,2.8,0,0,1-1.59,1.76c-2.56,1.3-4.32-1.43-7.65-.75-1.31.27-2,.36-5.3,2.65-2,1.38-3,1.21-3.26.9-.43-.48.66-2.09,1-2.56A13.45,13.45,0,0,1,35.75,98Z"/><path class="cls-8" d="M84.83,98c-3.39-1.47-8.42-2-10.53.34a2.87,2.87,0,0,0-.9,2.22A2.81,2.81,0,0,0,75,102.32c2.57,1.3,4.32-1.43,7.66-.75,1.31.27,2,.36,5.3,2.65,2,1.38,3,1.21,3.25.9.43-.48-.66-2.09-1-2.56A13.52,13.52,0,0,0,84.83,98Z"/><path class="cls-9" d="M116.43,98.86c-.56,1.39-2,4.5-3.41,5.22-2.6,1.31-2,.45-4-1.93-2.72-3.25-5-6.69-8.06-9.66a33.52,33.52,0,0,0-11.82-7.66c.74,3.68,1.65,7.87,3.2,9.48A117.1,117.1,0,0,1,55.66,86a18.1,18.1,0,0,0,2.52,8.06c-10.46.25-21.24-4.64-31.33-8.54a35.92,35.92,0,0,0-9.17,6.56c-3.06,3-5.34,6.4-8.06,9.65-2,2.39-1.4,3.24-4,1.93-1.43-.72-.87-5.32.39-6.14,3.52-2.31-1.15-5.82-1.15-8,0-8.17,0-7.66,4.7-10.85.73-.49,1.4-.93,2-1.32,2.52-2.51,7.6-4.56,9.76-5.73,9.72-5.29,20.65-9.41,31.9-7.92,8.3,1.1,15.88,5.12,23.26,9.07,3.58,1.92,8.21,11.24,9.52,7.4,1.07-3.16,1.71-1.73,2.38,1.24C90.7,79,94,77.59,97.16,76.56c4.91-1.59,10.66-2.5,14.94.41,4.69,3.18,2.66,9,2.43,14.69C114.43,93.9,117.26,96.79,116.43,98.86Z"/><path class="cls-2" d="M92.66,146.78v11.29A1.5,1.5,0,0,0,95,159.28C109,149.2,117.42,136,117.42,121.57V82.41c-1.33.15-2.68.27-4.06.37-2,.17-4.09.28-6.2.36h0V115.7C107.15,127.15,101.83,137.82,92.66,146.78Z"/><path class="cls-2" d="M28.45,146.78v11.29a1.49,1.49,0,0,1-2.36,1.21C12.15,149.2,3.7,136,3.7,121.57V82.41c1.32.15,2.68.27,4.06.37,2,.17,4.08.28,6.2.36h0V115.7C14,127.15,19.28,137.82,28.45,146.78Z"/><path class="cls-10" d="M60.8,35.11v.11a1.57,1.57,0,0,0-.29-.08A1.43,1.43,0,0,1,60.8,35.11Z"/><path class="cls-11" d="M119.28,63.38V80.24a2.89,2.89,0,0,1-2.37,2.86C96,86.8,64.08,76.81,60.65,75.7c-2.83.91-26.5,8.34-46.39,8.23-1.28,0-2.53-.05-3.76-.12h0c-1.26-.06-2.49-.17-3.68-.33-.82-.1-1.63-.21-2.42-.35A1.41,1.41,0,0,1,4.05,83a3.7,3.7,0,0,1-2-3.33V63.38a2.92,2.92,0,0,1,2.62-2.9l2.2-.24c2.45-.3,5.71-.78,9.43-1.51C30,56,50,49.83,59.47,35.88a1.85,1.85,0,0,1,.88-.67.6.6,0,0,1,.58,0,1.74,1.74,0,0,1,.87.66c13,19,45.42,23.64,54.86,24.6A2.91,2.91,0,0,1,119.28,63.38Z"/><path class="cls-10" d="M60.51,35.14a1.63,1.63,0,0,0-.3.07v-.1A1.53,1.53,0,0,1,60.51,35.14Z"/><path d="M21.76,78.43a1,1,0,0,1-1,1l-1.46,0c-1.19,0-2.35,0-3.5,0h0c-.53,0-1.05,0-1.57-.06a1,1,0,0,1-.91-1l-.27-15.55a1,1,0,0,1,.81-1c1.86-.33,4.06-.8,6.29-1.24l.46-.08a.87.87,0,0,1,.79.66.5.5,0,0,1,0,.12v.23h0Z"/><path d="M37.68,57.52,38,76.22a1.3,1.3,0,0,1-1,1.3c-1.92.36-3.89.69-5.86,1a1.29,1.29,0,0,1-1.47-1.27l-.31-17.74a1.29,1.29,0,0,1,.92-1.26c1.87-.55,3.78-1.18,5.69-1.89A1.29,1.29,0,0,1,37.68,57.52Z"/><path d="M53.85,49.43l.39,22.92a1.28,1.28,0,0,1-.93,1.26c-1.77.51-3.73,1-5.83,1.58A1.3,1.3,0,0,1,45.86,74l-.36-21a1.29,1.29,0,0,1,.68-1.16,60,60,0,0,0,5.65-3.4A1.29,1.29,0,0,1,53.85,49.43Z"/><path d="M99.52,78.43a1,1,0,0,0,1,1l1.46,0c1.19,0,2.35,0,3.5,0h0c.53,0,1,0,1.57-.06a1,1,0,0,0,.91-1l.27-15.55a1,1,0,0,0-.81-1c-1.86-.33-4.06-.8-6.29-1.24l-.46-.08a.87.87,0,0,0-.79.66.5.5,0,0,0,0,.12v.23h0Z"/><path d="M83.59,57.52l-.32,18.7a1.3,1.3,0,0,0,1,1.3c1.92.36,3.88.69,5.86,1a1.29,1.29,0,0,0,1.47-1.27L92,59.48A1.29,1.29,0,0,0,91,58.22c-1.87-.55-3.78-1.18-5.7-1.89A1.3,1.3,0,0,0,83.59,57.52Z"/><path d="M67.43,49.43,67,72.35A1.29,1.29,0,0,0,68,73.61c1.77.51,3.73,1,5.84,1.58A1.3,1.3,0,0,0,75.42,74l.36-21a1.29,1.29,0,0,0-.69-1.16,59.8,59.8,0,0,1-5.64-3.4A1.29,1.29,0,0,0,67.43,49.43Z"/></g></g></svg>