<svg xmlns="http://www.w3.org/2000/svg" viewBox="0 0 121.28 171"><defs><style>.cls-1{fill:#1b75bc;stroke:#2b3990;}.cls-1,.cls-10,.cls-2,.cls-3,.cls-6,.cls-7,.cls-9{stroke-miterlimit:10;}.cls-1,.cls-7{stroke-width:3px;}.cls-2,.cls-8,.cls-9{fill:#939598;}.cls-2,.cls-9{stroke:#58595b;}.cls-2{stroke-width:5px;}.cls-3{fill:#f1c27d;stroke:#8b5e3c;}.cls-3,.cls-9{stroke-width:4px;}.cls-10,.cls-4{fill:none;}.cls-5{fill:#603913;}.cls-6{stroke:#231f20;}.cls-7{fill:#231f20;stroke:#000;}.cls-10{stroke:#3c2415;stroke-linecap:round;stroke-width:6px;}</style></defs><g id="Layer_2" data-name="Layer 2"><g id="Layer_1-2" data-name="Layer 1"><path class="cls-1" d="M37.53,3.3c-1.42,2.13-2.59,5.1-.09,7.13a1.64,1.64,0,0,0,.22.14A6.07,6.07,0,0,0,45.22,9c4.07-4.59,8-8,15.46-7.32S73.82,8.08,72.8,17a17.83,17.83,0,0,1-6.62,12A1.13,1.13,0,0,1,65,29.2c-.78-.29-1.69-.83-6.89-.18A1.2,1.2,0,0,1,57,28.53a7.68,7.68,0,0,0-7.31-3.07c-1,.12-4.65,1-5.14,1.14l-.11,0c-.75.1-8.3.95-12.38-5.14-4.29-6.41-2.62-12-1.41-14.42A12.75,12.75,0,0,1,36,1.63,1.17,1.17,0,0,1,37.53,3.3Z"/><circle class="cls-2" cx="60.64" cy="85.67" r="56.4"/><path class="cls-3" d="M6,60.76H114.21a0,0,0,0,1,0,0v54.12A54.12,54.12,0,0,1,60.09,169h0A54.12,54.12,0,0,1,6,114.88V60.76a0,0,0,0,1,0,0Z"/><path class="cls-4" d="M43.53,70.18a1.93,1.93,0,0,1-.4-2.44"/><path class="cls-5" d="M67.51,138.38c-1.06,2-4.1,3.67-7.3,3.71s-6.24-1.67-7.3-3.71a2.9,2.9,0,0,1-.34-2.33,2.32,2.32,0,0,1,1.19-1.14c2-.78,3.42,2.67,6.38,2.62h.15c3,.05,4.37-3.4,6.38-2.62a2.32,2.32,0,0,1,1.19,1.14A2.86,2.86,0,0,1,67.51,138.38Z"/><path class="cls-6" d="M35.92,111.52c-3.56,2.7-9.37,5.31-12.57,4.39-.35-.1-1.4-.48-1.5-1.41a2.64,2.64,0,0,1,1.6-2.35c2.58-.72,4.35-.21,8.93-2.33,1.52-.7,2.77-1.11,6-4.42,1.93-2,2.53-2.59,2.94-2.47.66.21-.15,2-.38,2.52A17.51,17.51,0,0,1,35.92,111.52Z"/><path class="cls-6" d="M85.67,111.52c3.57,2.7,9.38,5.31,12.57,4.39.36-.1,1.41-.48,1.5-1.41a2.64,2.64,0,0,0-1.6-2.35c-2.58-.72-4.35-.21-8.93-2.33-1.52-.7-2.77-1.11-6-4.42-1.94-2-2.54-2.59-2.95-2.47-.65.21.15,2,.39,2.52A17.65,17.65,0,0,0,85.67,111.52Z"/><path class="cls-7" d="M116.43,98.86c-.56,1.39-2,4.5-3.41,5.22-2.6,1.31-2,.45-4-1.93-2.72-3.25-5-6.69-8.06-9.66a33.52,33.52,0,0,0-11.82-7.66c.74,3.68,1.65,7.87,3.2,9.48A117.1,117.1,0,0,1,55.66,86a18.1,18.1,0,0,0,2.52,8.06c-10.46.25-21.24-4.64-31.33-8.54a35.92,35.92,0,0,0-9.17,6.56c-3.06,3-5.34,6.4-8.06,9.65-2,2.39-1.4,3.24-4,1.93-1.43-.72-.87-5.32.39-6.14,3.52-2.31-1.15-5.82-1.15-8,0-8.17,0-7.66,4.7-10.85.73-.49,1.4-.93,2-1.32,2.52-2.51,7.6-4.56,9.76-5.73,9.72-5.29,20.65-9.41,31.9-7.92,8.3,1.1,15.88,5.12,23.26,9.07,3.58,1.92,8.21,11.24,9.52,7.4,1.07-3.16,1.71-1.73,2.38,1.24C90.7,79,94,77.59,97.16,76.56c4.91-1.59,10.66-2.5,14.94.41,4.69,3.18,2.66,9,2.43,14.69C114.43,93.9,117.26,96.79,116.43,98.86Z"/><path class="cls-2" d="M92.66,146.78v11.29A1.5,1.5,0,0,0,95,159.28C109,149.2,117.42,136,117.42,121.57V82.41c-1.33.15-2.68.27-4.06.37-2,.17-4.09.28-6.2.36h0V115.7C107.15,127.15,101.83,137.82,92.66,146.78Z"/><path class="cls-2" d="M28.45,146.78v11.29a1.49,1.49,0,0,1-2.36,1.21C12.15,149.2,3.7,136,3.7,121.57V82.41c1.32.15,2.68.27,4.06.37,2,.17,4.08.28,6.2.36h0V115.7C14,127.15,19.28,137.82,28.45,146.78Z"/><path class="cls-8" d="M60.8,35.11v.11a1.57,1.57,0,0,0-.29-.08A1.43,1.43,0,0,1,60.8,35.11Z"/><path class="cls-9" d="M119.28,63.38V80.24a2.89,2.89,0,0,1-2.37,2.86C96,86.8,64.08,76.81,60.65,75.7c-2.83.91-26.5,8.34-46.39,8.23-1.28,0-2.53-.05-3.76-.12h0c-1.26-.06-2.49-.17-3.68-.33-.82-.1-1.63-.21-2.42-.35A1.41,1.41,0,0,1,4.05,83a3.7,3.7,0,0,1-2-3.33V63.38a2.92,2.92,0,0,1,2.62-2.9l2.2-.24c2.45-.3,5.71-.78,9.43-1.51C30,56,50,49.83,59.47,35.88a1.85,1.85,0,0,1,.88-.67.6.6,0,0,1,.58,0,1.74,1.74,0,0,1,.87.66c13,19,45.42,23.64,54.86,24.6A2.91,2.91,0,0,1,119.28,63.38Z"/><path class="cls-8" d="M60.51,35.14a1.63,1.63,0,0,0-.3.07v-.1A1.53,1.53,0,0,1,60.51,35.14Z"/><path class="cls-6" d="M51.12,119.56a13,13,0,0,1-24.88.6c.56.67,4.88,3.62,12.44,3.36C46.06,123.27,50.56,120.28,51.12,119.56Z"/><path class="cls-6" d="M71.05,119.56a13,13,0,0,0,24.88.6c-.56.67-4.88,3.62-12.44,3.36C76.11,123.27,71.61,120.28,71.05,119.56Z"/><line class="cls-10" x1="47.31" y1="152.16" x2="72.87" y2="152.16"/><path d="M21.76,78.43a1,1,0,0,1-1,1l-1.46,0c-1.19,0-2.35,0-3.5,0h0c-.53,0-1.05,0-1.57-.06a1,1,0,0,1-.91-1l-.27-15.55a1,1,0,0,1,.81-1c1.86-.33,4.06-.8,6.29-1.24l.46-.08a.87.87,0,0,1,.79.66.5.5,0,0,1,0,.12v.23h0Z"/><path d="M37.68,57.52,38,76.22a1.3,1.3,0,0,1-1,1.3c-1.92.36-3.89.69-5.86,1a1.29,1.29,0,0,1-1.47-1.27l-.31-17.74a1.29,1.29,0,0,1,.92-1.26c1.87-.55,3.78-1.18,5.69-1.89A1.29,1.29,0,0,1,37.68,57.52Z"/><path d="M53.85,49.43l.39,22.92a1.28,1.28,0,0,1-.93,1.26c-1.77.51-3.73,1-5.83,1.58A1.3,1.3,0,0,1,45.86,74l-.36-21a1.29,1.29,0,0,1,.68-1.16,60,60,0,0,0,5.65-3.4A1.29,1.29,0,0,1,53.85,49.43Z"/><path d="M99.52,78.43a1,1,0,0,0,1,1l1.46,0c1.19,0,2.35,0,3.5,0h0c.53,0,1,0,1.57-.06a1,1,0,0,0,.91-1l.27-15.55a1,1,0,0,0-.81-1c-1.86-.33-4.06-.8-6.29-1.24l-.46-.08a.87.87,0,0,0-.79.66.5.5,0,0,0,0,.12v.23h0Z"/><path d="M83.59,57.52l-.32,18.7a1.3,1.3,0,0,0,1,1.3c1.92.36,3.88.69,5.86,1a1.29,1.29,0,0,0,1.47-1.27L92,59.48A1.29,1.29,0,0,0,91,58.22c-1.87-.55-3.78-1.18-5.7-1.89A1.3,1.3,0,0,0,83.59,57.52Z"/><path d="M67.43,49.43,67,72.35A1.29,1.29,0,0,0,68,73.61c1.77.51,3.73,1,5.84,1.58A1.3,1.3,0,0,0,75.42,74l.36-21a1.29,1.29,0,0,0-.69-1.16,59.8,59.8,0,0,1-5.64-3.4A1.29,1.29,0,0,0,67.43,49.43Z"/></g></g></svg>