<svg xmlns="http://www.w3.org/2000/svg" viewBox="0 0 121.28 171.43"><defs><style>.cls-1{fill:#1b75bc;stroke:#2b3990;}.cls-1,.cls-10,.cls-11,.cls-2,.cls-3,.cls-6,.cls-8,.cls-9{stroke-miterlimit:10;}.cls-1,.cls-6{stroke-width:3px;}.cls-2,.cls-7,.cls-8{fill:#939598;}.cls-2,.cls-8{stroke:#58595b;}.cls-2,.cls-9{stroke-width:5px;}.cls-3{fill:#f1c27d;}.cls-11,.cls-3{stroke:#8b5e3c;}.cls-3,.cls-8{stroke-width:4px;}.cls-4,.cls-9{fill:none;}.cls-5{fill:#603913;}.cls-6{fill:#231f20;stroke:#000;}.cls-9{stroke:#3c2415;stroke-linecap:round;}.cls-10{stroke:#231f20;stroke-width:0.87px;}.cls-11,.cls-12{fill:#fff;}.cls-11{stroke-width:1.5px;}</style></defs><g id="Layer_2" data-name="Layer 2"><g id="Layer_1-2" data-name="Layer 1"><path class="cls-1" d="M36.2,3.3c-1.41,2.13-2.59,5.1-.08,7.13l.21.14A6.09,6.09,0,0,0,43.9,9c4.06-4.59,8-8,15.46-7.32S72.5,8.08,71.47,17a17.79,17.79,0,0,1-6.61,12,1.13,1.13,0,0,1-1.15.21c-.79-.29-1.7-.83-6.9-.18a1.18,1.18,0,0,1-1.1-.49,7.69,7.69,0,0,0-7.31-3.07c-1,.12-4.66,1-5.14,1.14l-.11,0c-.75.1-8.3.95-12.38-5.14-4.29-6.41-2.63-12-1.41-14.42a12.75,12.75,0,0,1,5.33-5.43A1.16,1.16,0,0,1,36.2,3.3Z"/><circle class="cls-2" cx="60.64" cy="86.11" r="56.4"/><path class="cls-3" d="M6.52,61.2H114.75a0,0,0,0,1,0,0v54.12a54.12,54.12,0,0,1-54.12,54.12h0A54.12,54.12,0,0,1,6.52,115.31V61.2a0,0,0,0,1,0,0Z"/><path class="cls-4" d="M43.08,70.62a1.93,1.93,0,0,1-.41-2.44"/><path class="cls-5" d="M67.94,135.84c-1.06,2-4.1,3.67-7.3,3.71s-6.24-1.67-7.3-3.71a2.86,2.86,0,0,1-.35-2.33,2.35,2.35,0,0,1,1.19-1.14c2-.78,3.43,2.67,6.38,2.62h.15c3,0,4.37-3.4,6.39-2.62a2.31,2.31,0,0,1,1.18,1.14A2.9,2.9,0,0,1,67.94,135.84Z"/><path class="cls-6" d="M116,99.29c-.56,1.4-2,4.5-3.4,5.22-2.6,1.31-2,.46-4-1.93-2.72-3.25-5-6.68-8.07-9.65a33.59,33.59,0,0,0-11.82-7.67c.74,3.68,1.66,7.88,3.21,9.49a117.39,117.39,0,0,1-36.68-8.29,18,18,0,0,0,2.51,8.06C47.27,94.78,36.49,89.88,26.4,86a35.79,35.79,0,0,0-9.17,6.57c-3.07,3-5.35,6.4-8.06,9.64-2,2.39-1.41,3.25-4,1.94-1.42-.72-.87-5.32.4-6.15,3.51-2.3-1.15-5.82-1.16-8,0-8.16,0-7.66,4.7-10.85.73-.49,1.41-.92,2.06-1.31,2.52-2.52,7.6-4.56,9.75-5.73,9.72-5.3,20.65-9.41,31.9-7.92,8.3,1.09,15.88,5.11,23.26,9.06,3.59,1.92,8.22,11.25,9.52,7.4,1.07-3.16,1.72-1.72,2.39,1.25C90.24,79.47,93.52,78,96.7,77c4.92-1.59,10.67-2.49,14.94.41,4.7,3.18,2.66,9,2.43,14.7C114,94.33,116.81,97.22,116,99.29Z"/><path class="cls-2" d="M92.74,147.22V158.5a1.5,1.5,0,0,0,2.37,1.21c13.94-10.08,22.39-23.27,22.39-37.7V82.84c-1.33.15-2.68.27-4.06.38q-3,.24-6.2.35h0v32.55C107.23,127.59,101.91,138.26,92.74,147.22Z"/><path class="cls-2" d="M28.53,147.22V158.5a1.49,1.49,0,0,1-2.36,1.21C12.22,149.63,3.78,136.44,3.78,122V82.84c1.32.15,2.68.27,4.06.38,2,.16,4.08.28,6.19.35h0v32.55C14,127.59,19.36,138.26,28.53,147.22Z"/><path class="cls-7" d="M60.34,35.55v.1a1.38,1.38,0,0,0-.29-.08A1.42,1.42,0,0,1,60.34,35.55Z"/><path class="cls-8" d="M119.28,63.82V80.67a2.91,2.91,0,0,1-2.37,2.87c-20.9,3.7-52.83-6.3-56.26-7.41-2.83.91-26.5,8.35-46.39,8.23-1.28,0-2.53,0-3.76-.12h0c-1.26-.07-2.49-.18-3.68-.33-.82-.1-1.63-.22-2.42-.36a.94.94,0,0,1-.35-.12A3.68,3.68,0,0,1,2,80.1V63.82a2.93,2.93,0,0,1,2.62-2.91l2.2-.24c2.45-.3,5.71-.77,9.43-1.5C30,56.47,50,50.27,59.47,36.31a1.85,1.85,0,0,1,.88-.67.6.6,0,0,1,.58,0,1.74,1.74,0,0,1,.87.66c13,19,45.42,23.64,54.86,24.6A2.92,2.92,0,0,1,119.28,63.82Z"/><path class="cls-7" d="M60.05,35.57a1.53,1.53,0,0,0-.29.07v-.09A1.42,1.42,0,0,1,60.05,35.57Z"/><line class="cls-9" x1="50.98" y1="153.17" x2="70.3" y2="153.17"/><path class="cls-10" d="M31.67,97.19c3.3-1.44,8.18-1.9,10.23.32a2.18,2.18,0,0,1-.66,3.87c-2.49,1.26-4.2-1.39-7.44-.73-1.27.26-1.95.36-5.15,2.58-1.93,1.34-2.9,1.17-3.16.88-.42-.48.64-2,1-2.5A13,13,0,0,1,31.67,97.19Z"/><path class="cls-10" d="M87.73,97.19c-3.3-1.44-8.18-1.9-10.24.32a2.8,2.8,0,0,0-.87,2.16,2.72,2.72,0,0,0,1.54,1.71c2.49,1.26,4.19-1.39,7.43-.73,1.28.26,2,.36,5.16,2.58,1.93,1.34,2.9,1.17,3.16.88.42-.48-.64-2-1-2.5A13,13,0,0,0,87.73,97.19Z"/><circle class="cls-11" cx="38.65" cy="118.99" r="14.35"/><ellipse cx="38.65" cy="118.93" rx="4.95" ry="5.46"/><ellipse class="cls-12" cx="35.98" cy="117.66" rx="1.74" ry="1.79"/><circle class="cls-11" cx="82.63" cy="118.99" r="14.35"/><ellipse cx="82.63" cy="118.93" rx="4.95" ry="5.46"/><ellipse class="cls-12" cx="79.96" cy="117.66" rx="1.74" ry="1.79"/><path d="M21.76,78.64a1,1,0,0,1-1,1l-1.46,0c-1.19,0-2.35,0-3.5,0h0c-.53,0-1.05,0-1.57-.06a1,1,0,0,1-.91-1l-.27-15.55a1,1,0,0,1,.81-1c1.86-.33,4.06-.8,6.29-1.24l.46-.08a.87.87,0,0,1,.79.66.5.5,0,0,1,0,.12v.23h0Z"/><path d="M37.68,57.73,38,76.44a1.3,1.3,0,0,1-1,1.3c-1.92.36-3.89.69-5.86,1a1.29,1.29,0,0,1-1.47-1.26l-.31-17.75a1.27,1.27,0,0,1,.92-1.25c1.87-.56,3.78-1.19,5.69-1.89A1.29,1.29,0,0,1,37.68,57.73Z"/><path d="M53.85,49.64l.39,22.92a1.28,1.28,0,0,1-.93,1.27c-1.77.5-3.73,1-5.83,1.58a1.31,1.31,0,0,1-1.62-1.24l-.36-21A1.28,1.28,0,0,1,46.18,52a62.16,62.16,0,0,0,5.65-3.4A1.29,1.29,0,0,1,53.85,49.64Z"/><path d="M99.52,78.64a1,1,0,0,0,1,1l1.46,0c1.19,0,2.35,0,3.5,0h0c.53,0,1,0,1.57-.06a1,1,0,0,0,.91-1l.27-15.55a1,1,0,0,0-.81-1c-1.86-.33-4.06-.8-6.29-1.24l-.46-.08a.87.87,0,0,0-.79.66.5.5,0,0,0,0,.12v.23h0Z"/><path d="M83.59,57.73l-.32,18.71a1.3,1.3,0,0,0,1,1.3c1.92.36,3.88.69,5.86,1a1.29,1.29,0,0,0,1.47-1.26L92,59.69A1.27,1.27,0,0,0,91,58.44c-1.87-.56-3.78-1.19-5.7-1.89A1.29,1.29,0,0,0,83.59,57.73Z"/><path d="M67.43,49.64,67,72.56A1.29,1.29,0,0,0,68,73.83c1.77.5,3.73,1,5.84,1.58a1.31,1.31,0,0,0,1.62-1.24l.36-21A1.28,1.28,0,0,0,75.09,52a62,62,0,0,1-5.64-3.4A1.29,1.29,0,0,0,67.43,49.64Z"/></g></g></svg>