<svg xmlns="http://www.w3.org/2000/svg" viewBox="0 0 305.2 49.21"><defs><style>.cls-1{fill:#015fa9;}</style></defs><g id="Layer_2" data-name="Layer 2"><g id="Layer_1-2" data-name="Layer 1"><path class="cls-1" d="M77.07,20.41V11.7H68.36V1.11L60.43,2.73l-1.76,9h-6.5v8.71h6V37.05c0,8.19,2.86,11.57,12.8,11.57,1.82,0,4.55,0,6-.13V40h-4c-4.35,0-4.74-1.57-4.74-4.43V20.41Zm36.82,17.16c-2.73,2-5.91,3.38-11.57,3.38-6.56,0-8.71-2.6-9.29-7h25.61c.32-12.28-.2-23.08-16.38-23.08-15.73,0-19.11,8.91-19.11,19.18,0,10.47,3.25,19.18,19.17,19.18,7.28,0,12-1.44,16.71-5Zm-12-18.2c6.31,0,7.15,3.05,7.41,7.28H93C93.55,22.16,95.63,19.37,101.93,19.37Zm47.27-8.52c-7.8,0-11.38,1.89-13.33,4L135,11.7l-7.93.59v36.2h10.2V28.66c0-4.87,1.17-8.18,8.26-8.18,6.17,0,6.69,3.25,6.69,7.73V48.49h10.14V26.19C162.39,17,160.31,10.85,149.2,10.85Zm52,26.72c-2.73,2-5.91,3.38-11.57,3.38-6.56,0-8.71-2.6-9.29-7H206c.32-12.28-.2-23.08-16.38-23.08-15.73,0-19.11,8.91-19.11,19.18,0,10.47,3.25,19.18,19.17,19.18,7.28,0,12-1.44,16.71-5Zm-12-18.2c6.31,0,7.15,3.05,7.41,7.28H180.34C180.86,22.16,182.94,19.37,189.24,19.37Zm69.38-7.67-6.76,22.36-7-22.36H234.77l-7,22.42L221,11.7H210.26l12,37.18H232l7.61-23.66,7.6,23.66h9.75l12-37.18Zm30.26,13.91c-4.74-.65-6-1.11-6-3.19,0-1.75,1-2.66,6.24-2.66a24.05,24.05,0,0,1,10.33,2.4l4.88-7.93c-3.9-2.21-9.62-3.38-15.54-3.38-11.63,0-16.05,4-16.05,11.51,0,9.62,6.95,10.92,16.05,12.16,5,.64,6.5,1.1,6.5,3.25,0,2.53-1.49,3-6.63,3a25.26,25.26,0,0,1-13-3.84l-5.2,7.48c4.94,3.31,11.25,4.61,17.55,4.61,12.68,0,17.23-3.44,17.23-11.89C305.2,28,298.24,26.91,288.88,25.61Z"/><g id="Layer_2-2" data-name="Layer 2"><path class="cls-1" d="M30.09,0h-17l3.1,7.89L0,48.49H10.4l3.12-7.93H35.36l3.12,7.93H49.53ZM16.9,31.78l7.54-19.17L32,31.78Z"/></g></g></g></svg>